<?xml version="1.0" encoding="utf-8"?>
<!-- Generator: Adobe Illustrator 27.0.0, SVG Export Plug-In . SVG Version: 6.00 Build 0)  -->
<svg version="1.1" id="Layer_1" xmlns="http://www.w3.org/2000/svg" xmlns:xlink="http://www.w3.org/1999/xlink" x="0px" y="0px"
	 viewBox="0 0 256 256" style="enable-background:new 0 0 256 256;" xml:space="preserve">
<style type="text/css">
	.st0{fill:#FFFFFF;}
	.st1{fill:url(#SVGID_1_);}
	.st2{fill:#00AC65;}
	.st3{fill:url(#SVGID_00000138542831273430638280000012595773281798421946_);}
	.st4{fill:#8ECFAE;}
	.st5{fill:#7D57A4;}
	.st6{fill-rule:evenodd;clip-rule:evenodd;fill:#7D57A4;}
	.st7{fill-rule:evenodd;clip-rule:evenodd;fill:url(#SVGID_00000131331747716723679650000008588792451875962300_);}
</style>
<g>
	<path class="st0" d="M238.16,256.03H17.83c-9.85,0-17.83-7.98-17.83-17.83V17.86c0-9.85,7.98-17.83,17.83-17.83h220.33
		c9.85,0,17.83,7.98,17.83,17.83v220.33C255.99,248.04,248.01,256.03,238.16,256.03z"/>
	<g>
		<linearGradient id="SVGID_1_" gradientUnits="userSpaceOnUse" x1="121.3309" y1="158.1581" x2="142.0639" y2="248.9139">
			<stop  offset="0" style="stop-color:#4D186E"/>
			<stop  offset="1" style="stop-color:#7D57A4"/>
		</linearGradient>
		<path class="st1" d="M251.06,140.44v93.41c0,9.74-7.89,17.63-17.63,17.63H22.93c-9.74,0-17.63-7.89-17.63-17.63v-92.58
			c8.45,30.89,36.77,53.67,70.31,53.67c19.68,0,38.8-8.12,52.45-22.27c13.63,14.11,32.54,22.27,52.45,22.27
			C214.35,194.95,242.89,171.75,251.06,140.44z"/>
		<g>
			<path class="st0" d="M44.78,217.55c-0.23-0.39-0.96-1.65-2.81-1.65c-2.03,0-3.7,1.47-3.7,4.41c0,2.59,1.26,4.37,3.41,4.37
				c0.49,0,0.97-0.08,1.44-0.21c0.02-0.46,0.03-0.89,0.03-1.35c0-0.8-0.06-1.61-0.17-2.41c0.49,0.08,0.97,0.09,1.47,0.09
				c0.46,0,0.8-0.02,1.32-0.09c-0.06,0.3-0.14,1.09-0.14,1.83c0,0.41,0,1.53,0.11,2.44c-1.46,0.36-2.94,0.74-4.43,0.74
				c-3.44,0-5.81-2.17-5.81-5.34c0-2.76,1.82-5.57,6.31-5.57c1.21,0,2.62,0.24,3.75,0.88c-0.35,0.79-0.47,1.37-0.55,1.8
				L44.78,217.55z"/>
			<path class="st0" d="M53.25,217.42c-0.29-1.15-1.18-1.49-1.97-1.49c-0.3,0-1.71,0.03-1.71,1.32c0,0.96,0.68,1.23,2.93,2.12
				c0.44,0.18,1.05,0.55,1.46,1.17c0.35,0.52,0.46,1.12,0.46,1.71c0,1.97-1.41,3.46-4.03,3.46c-1.53,0-2.41-0.47-2.9-0.74
				c0.18-0.61,0.32-1.56,0.32-2.09h0.38c0.24,1.37,1.4,1.77,2.31,1.77c1.27,0,1.82-0.74,1.82-1.52c0-0.85-0.53-1.09-2.38-1.9
				c-1.38-0.61-2.32-1.4-2.32-3.06c0-2.09,1.4-3.28,3.69-3.28c1.44,0,2.21,0.41,2.81,0.73c-0.29,0.52-0.47,1.41-0.5,1.79H53.25z"/>
			<path class="st0" d="M56.22,214.38c0.44,0.05,0.88,0.08,1.32,0.08c0.42,0,0.85-0.02,1.27-0.08c-0.18,1.52-0.21,2.93-0.21,4.91
				c0.74-1.17,1.73-1.32,2.4-1.32c0.58,0,1.4,0.14,1.93,0.76c0.41,0.47,0.55,1,0.55,2.06c0,0.77-0.03,1.55-0.03,2.32
				c0,0.8,0.02,1.62,0.08,2.43c-0.44-0.06-0.9-0.08-1.35-0.08c-0.41,0-0.82,0.03-1.23,0.08c0.17-1.38,0.18-3.37,0.18-3.53
				c0-1.64-0.15-2.61-1.15-2.61c-0.7,0-1.15,0.47-1.24,1.15c-0.08,0.59-0.09,2-0.09,2.55c0,0.82,0.05,1.64,0.15,2.44
				c-0.38-0.05-0.91-0.08-1.29-0.08c-0.42,0-0.85,0.02-1.27,0.08c0.11-1.27,0.12-2.56,0.12-3.85
				C56.35,220.03,56.35,215.7,56.22,214.38z"/>
			<path class="st0" d="M72.26,223.92c-0.23,0.49-0.32,0.82-0.39,1.11c-0.93,0.65-2.12,0.74-2.67,0.74c-2.52,0-3.9-1.64-3.9-3.93
				c0-2.84,1.87-3.88,3.81-3.88c2.37,0,3.41,1.5,3.41,3.4c0,0.18-0.03,0.47-0.05,0.61c-0.88-0.05-1.76-0.06-2.64-0.06
				c-0.64,0-1.05,0.01-2.05,0.06c-0.02,0.94,0.17,2.56,2.2,2.56c0.46,0,1.26-0.06,2-0.86L72.26,223.92z M70.14,221.08
				c-0.02-1.79-0.32-2.4-1.09-2.4c-0.61,0-1.29,0.5-1.26,2.4H70.14z"/>
			<path class="st0" d="M80.8,223.92c-0.23,0.49-0.32,0.82-0.39,1.11c-0.93,0.65-2.12,0.74-2.67,0.74c-2.52,0-3.9-1.64-3.9-3.93
				c0-2.84,1.87-3.88,3.81-3.88c2.37,0,3.41,1.5,3.41,3.4c0,0.18-0.03,0.47-0.05,0.61c-0.88-0.05-1.76-0.06-2.64-0.06
				c-0.64,0-1.05,0.01-2.05,0.06c-0.02,0.94,0.17,2.56,2.2,2.56c0.46,0,1.26-0.06,2-0.86L80.8,223.92z M78.68,221.08
				c-0.02-1.79-0.32-2.4-1.09-2.4c-0.61,0-1.29,0.5-1.26,2.4H78.68z"/>
			<path class="st0" d="M85.46,215.5c-0.06,0.9-0.18,2.18-0.18,2.7c0.33,0,0.85-0.05,1.3-0.08c-0.03,0.15-0.06,0.26-0.06,0.47
				c0,0.24,0.03,0.39,0.06,0.5c-0.44-0.03-0.96-0.08-1.3-0.08c-0.05,1.29-0.06,2.9-0.06,4.2c0,0.91,0,1.59,0.74,1.59
				c0.18,0,0.42-0.06,0.59-0.14c-0.03,0.14-0.05,0.26-0.05,0.38c0,0.15,0.03,0.29,0.05,0.36c-0.67,0.21-1.12,0.35-1.67,0.35
				c-0.65,0-1.15-0.2-1.52-0.58c-0.41-0.42-0.5-0.88-0.5-1.65c0-1.26,0.06-3.26,0.06-4.52c-0.29,0-0.65,0.04-0.96,0.08
				c0.05-0.15,0.06-0.27,0.06-0.5c0-0.21-0.03-0.32-0.06-0.47c0.38,0.03,0.73,0.08,0.96,0.08c0-0.67-0.03-1.14-0.05-1.71
				c1.18-0.41,1.97-0.88,2.4-1.12L85.46,215.5z"/>
			<path class="st0" d="M97.46,225.74c-3.38,0-5.82-1.82-5.82-5.38c0-3.2,2.09-5.55,5.92-5.55c3.26,0,5.87,1.76,5.87,5.26
				C103.43,223.96,100.51,225.74,97.46,225.74z M97.59,215.88c-2.31,0-3.19,2.17-3.19,4.55c0,3.02,1.49,4.23,3.06,4.23
				c1.93,0,3.2-1.67,3.2-4.57C100.67,217.59,99.56,215.88,97.59,215.88z"/>
			<path class="st0" d="M109.68,220.44c-0.26-0.18-0.52-0.32-0.82-0.32c-1.06,0-1.06,1.18-1.06,2.15c0,0.5,0.02,1.93,0.15,3.26
				c-0.39-0.06-0.94-0.08-1.38-0.08c-0.52,0-1.02,0.05-1.2,0.08c0.08-0.94,0.11-1.33,0.11-3.29c0-1.61,0-2.76-0.12-4.17
				c0.21,0.03,0.68,0.08,1.26,0.08c0.53,0,1-0.04,1.18-0.08l-0.11,1.59c0.71-1.77,1.52-1.73,2.27-1.68
				c-0.06,0.5-0.15,1.26-0.11,2.35L109.68,220.44z"/>
			<path class="st0" d="M116.42,224.52c-0.46,0.65-0.93,1.23-2.18,1.23c-2.2,0-3.31-1.65-3.31-3.87c0-2.03,0.99-3.9,3.2-3.9
				c1.27,0,1.87,0.58,2.23,0.94c0-1.83,0-3.38-0.14-4.55c0.38,0.05,0.97,0.08,1.37,0.08c0.41,0,0.82-0.03,1.23-0.08
				c-0.18,2.59-0.2,5.22-0.2,7.37c0,2.4,0.05,3.02,0.12,3.79c-0.27-0.03-0.77-0.08-1.21-0.08c-0.44,0-0.92,0.05-1.18,0.08
				L116.42,224.52z M114.95,219.06c-1.12,0-1.47,1.26-1.47,2.94c0,0.9,0.15,2.73,1.43,2.73c1.3,0,1.46-2,1.46-2.93
				C116.36,220.84,116.22,219.06,114.95,219.06z"/>
			<path class="st0" d="M127.39,223.92c-0.23,0.49-0.32,0.82-0.39,1.11c-0.93,0.65-2.12,0.74-2.67,0.74c-2.52,0-3.9-1.64-3.9-3.93
				c0-2.84,1.87-3.88,3.81-3.88c2.37,0,3.41,1.5,3.41,3.4c0,0.18-0.03,0.47-0.05,0.61c-0.88-0.05-1.76-0.06-2.64-0.06
				c-0.64,0-1.05,0.01-2.05,0.06c-0.02,0.94,0.17,2.56,2.2,2.56c0.46,0,1.26-0.06,2-0.86L127.39,223.92z M125.27,221.08
				c-0.02-1.79-0.32-2.4-1.09-2.4c-0.61,0-1.29,0.5-1.26,2.4H125.27z"/>
			<path class="st0" d="M133.61,220.44c-0.26-0.18-0.52-0.32-0.82-0.32c-1.06,0-1.06,1.18-1.06,2.15c0,0.5,0.02,1.93,0.15,3.26
				c-0.39-0.06-0.94-0.08-1.38-0.08c-0.52,0-1.02,0.05-1.2,0.08c0.08-0.94,0.11-1.33,0.11-3.29c0-1.61,0-2.76-0.12-4.17
				c0.21,0.03,0.68,0.08,1.26,0.08c0.53,0,1-0.04,1.18-0.08l-0.11,1.59c0.71-1.77,1.52-1.73,2.28-1.68
				c-0.06,0.5-0.15,1.26-0.11,2.35L133.61,220.44z"/>
			<path class="st0" d="M142.52,214.89c0.26,0.06,0.53,0.09,0.79,0.09c0.24,0,0.5-0.03,0.74-0.09c1.43,4.19,3.17,8.43,4.11,10.65
				c-0.47-0.08-0.96-0.09-1.43-0.09c-0.5,0-1.14,0-1.61,0.09c-0.44-1.58-0.8-2.53-0.97-2.99c-0.52-0.01-1.03-0.04-1.58-0.04
				c-0.56,0-1.15,0.01-1.74,0.04c-0.26,0.74-0.65,1.87-0.91,2.99c-0.29-0.05-0.53-0.09-0.83-0.09c-0.15,0-0.52,0-0.85,0.09
				C139.17,223.58,141.47,217.88,142.52,214.89z M142.56,218.08l-1.29,3.32c0.41,0.03,0.82,0.05,1.23,0.05
				c0.42,0,0.85-0.03,1.27-0.05L142.56,218.08z"/>
			<path class="st0" d="M154.19,224.37c-0.82,1.2-1.73,1.38-2.37,1.38c-1.44,0-2.35-0.92-2.35-2.37c0-0.93-0.03-2.93-0.03-3.67
				c0-0.55-0.08-1.09-0.09-1.64c0.41,0.06,0.92,0.08,1.35,0.08c0.56,0,1.05-0.04,1.27-0.08c-0.11,0.83-0.15,1.53-0.15,2.38
				c0,0.55,0.02,2.4,0.06,2.79c0.08,0.61,0.36,1.05,1.03,1.05c0.96,0,1.17-0.92,1.17-1.7c0-1.18-0.03-3.41-0.09-4.52
				c0.35,0.04,0.83,0.08,1.32,0.08c0.56,0,1.03-0.04,1.26-0.08c-0.12,1-0.17,2.56-0.17,3.47c0,1.65,0.08,3.23,0.14,3.99
				c-0.23-0.03-0.7-0.08-1.24-0.08c-0.56,0-1.06,0.05-1.21,0.08L154.19,224.37z"/>
			<path class="st0" d="M161.41,215.5c-0.06,0.9-0.18,2.18-0.18,2.7c0.33,0,0.85-0.05,1.3-0.08c-0.03,0.15-0.06,0.26-0.06,0.47
				c0,0.24,0.03,0.39,0.06,0.5c-0.44-0.03-0.96-0.08-1.3-0.08c-0.04,1.29-0.06,2.9-0.06,4.2c0,0.91,0,1.59,0.74,1.59
				c0.18,0,0.42-0.06,0.59-0.14c-0.03,0.14-0.05,0.26-0.05,0.38c0,0.15,0.03,0.29,0.05,0.36c-0.67,0.21-1.12,0.35-1.67,0.35
				c-0.65,0-1.15-0.2-1.52-0.58c-0.41-0.42-0.5-0.88-0.5-1.65c0-1.26,0.06-3.26,0.06-4.52c-0.29,0-0.65,0.04-0.96,0.08
				c0.05-0.15,0.06-0.27,0.06-0.5c0-0.21-0.03-0.32-0.06-0.47c0.38,0.03,0.73,0.08,0.96,0.08c0-0.67-0.03-1.14-0.05-1.71
				c1.18-0.41,1.97-0.88,2.4-1.12L161.41,215.5z"/>
			<path class="st0" d="M167.15,217.92c2.73,0,4.05,1.56,4.05,3.79s-1.35,4.02-4.05,4.02c-2.59,0-4-1.62-4-3.9
				C163.14,219.78,164.25,217.92,167.15,217.92z M168.66,221.72c0-1.03-0.05-3.05-1.5-3.05s-1.49,2.17-1.49,3.16
				c0,0.96,0.05,3.17,1.47,3.17C168.41,224.99,168.66,223.26,168.66,221.72z"/>
			<path class="st0" d="M175.08,219.31c0.59-0.93,1.35-1.33,2.46-1.33c1.08,0,1.74,0.39,2.15,1.38c0.58-0.88,1.38-1.38,2.44-1.38
				c1.5,0,2.41,0.82,2.41,2.5c-0.02,0.92-0.02,2.5-0.02,3.49c0,0.76,0.05,1.14,0.06,1.58c-0.44-0.06-0.89-0.08-1.33-0.08
				c-0.49,0-0.99,0.05-1.23,0.08c0.11-1.09,0.15-2.44,0.15-3.55c0-1.55-0.03-2.56-1.11-2.56c-0.93,0-1.27,0.64-1.27,1.88v2.76
				c0,0.41,0.05,1.05,0.08,1.47c-0.44-0.05-0.86-0.08-1.3-0.08c-0.38,0-0.83,0-1.21,0.08c0.12-0.94,0.17-2.17,0.17-3.16
				c0-2.2-0.14-2.96-1.17-2.96c-1.11,0-1.21,1.06-1.21,1.85v2.71c0,0.39,0.02,1.03,0.08,1.55c-0.35-0.05-0.8-0.08-1.29-0.08
				c-0.56,0-1.05,0.05-1.23,0.08c0.08-0.58,0.09-1.17,0.09-1.76v-3.46c0-0.76-0.05-1.5-0.12-2.24c0.39,0.06,0.83,0.08,1.23,0.08
				c0.42,0,0.85-0.03,1.26-0.08L175.08,219.31z"/>
			<path class="st0" d="M186.6,219.93c-0.04-0.32-0.12-0.68-0.27-0.96c1.03-0.82,2.09-1,2.88-1c0.8,0,1.65,0.18,2.27,0.73
				c0.52,0.46,0.64,1.11,0.64,1.74c0,0.73-0.08,1.75-0.08,3.26c0,0.56,0,1.06,0.52,1.06c0.17,0,0.38-0.06,0.5-0.18
				c-0.03,0.21-0.03,0.41,0,0.61c-0.3,0.2-0.96,0.53-1.62,0.53c-1.03,0-1.33-0.7-1.44-0.99c-0.3,0.39-0.82,1.05-2.08,1.05
				c-1.68,0-2.15-1.17-2.15-2.05c0-1.58,1-1.9,3.03-2.5c1.06-0.32,1.08-0.38,1.08-0.79c0-0.85-0.47-1.3-1.37-1.3
				c-1.02,0-1.59,0.53-1.88,0.8L186.6,219.93z M188.01,223.45c0,0.46,0.11,1.12,0.91,1.12c0.42,0,0.74-0.24,0.85-0.67
				c0.08-0.3,0.08-0.74,0.08-2.18C188.41,222.02,188.01,222.38,188.01,223.45z"/>
			<path class="st0" d="M196.93,215.5c-0.06,0.9-0.18,2.18-0.18,2.7c0.33,0,0.85-0.05,1.3-0.08c-0.03,0.15-0.06,0.26-0.06,0.47
				c0,0.24,0.03,0.39,0.06,0.5c-0.44-0.03-0.96-0.08-1.3-0.08c-0.04,1.29-0.06,2.9-0.06,4.2c0,0.91,0,1.59,0.74,1.59
				c0.18,0,0.42-0.06,0.59-0.14c-0.03,0.14-0.05,0.26-0.05,0.38c0,0.15,0.03,0.29,0.05,0.36c-0.67,0.21-1.12,0.35-1.67,0.35
				c-0.65,0-1.15-0.2-1.52-0.58c-0.41-0.42-0.5-0.88-0.5-1.65c0-1.26,0.06-3.26,0.06-4.52c-0.29,0-0.65,0.04-0.96,0.08
				c0.05-0.15,0.06-0.27,0.06-0.5c0-0.21-0.03-0.32-0.06-0.47c0.38,0.03,0.73,0.08,0.96,0.08c0-0.67-0.03-1.14-0.05-1.71
				c1.18-0.41,1.97-0.88,2.4-1.12L196.93,215.5z"/>
			<path class="st0" d="M202.02,215.47c0,0.71-0.58,1.27-1.26,1.27c-0.7,0-1.27-0.56-1.27-1.27c0-0.68,0.56-1.26,1.27-1.26
				C201.46,214.21,202.02,214.79,202.02,215.47z M199.49,218.08c0.41,0.04,0.88,0.08,1.3,0.08c0.42,0,0.83-0.03,1.24-0.08
				c-0.11,1.08-0.12,2.18-0.12,3.26c0,1.26,0.04,2.99,0.15,4.2c-0.36-0.05-0.89-0.08-1.32-0.08c-0.46,0-0.96,0.03-1.24,0.08
				c0.11-1.15,0.14-2.61,0.14-3.79C199.64,220.53,199.62,219.29,199.49,218.08z"/>
			<path class="st0" d="M207.6,217.92c2.73,0,4.05,1.56,4.05,3.79s-1.35,4.02-4.05,4.02c-2.59,0-4-1.62-4-3.9
				C203.6,219.78,204.7,217.92,207.6,217.92z M209.12,221.72c0-1.03-0.05-3.05-1.5-3.05s-1.49,2.17-1.49,3.16
				c0,0.96,0.05,3.17,1.47,3.17C208.86,224.99,209.12,223.26,209.12,221.72z"/>
			<path class="st0" d="M215.71,219.26c0.44-0.74,1.27-1.29,2.34-1.29c0.74,0,1.68,0.27,2.09,0.88c0.36,0.53,0.41,1,0.41,1.62v3.18
				c0,0.62,0.03,1.26,0.08,1.88c-0.39-0.05-0.86-0.08-1.3-0.08c-0.56,0-1.05,0.05-1.26,0.08c0.12-0.99,0.15-2.4,0.15-3.41
				c0-1.88-0.06-2.73-1.17-2.73c-0.96,0-1.23,0.76-1.23,1.74v3.26c0,0.32,0.03,0.82,0.08,1.14c-0.39-0.05-0.79-0.08-1.18-0.08
				c-0.41,0-0.94,0.02-1.35,0.08c0.08-0.76,0.11-1.5,0.11-2.26v-2.85c0-0.82-0.03-1.55-0.12-2.35c0.21,0.03,0.67,0.08,1.24,0.08
				c0.55,0,1.02-0.04,1.21-0.08L215.71,219.26z"/>
			<path class="st0" d="M45.95,236.69h-2.02v7.06h-1.39v-7.06h-1.41v-0.67l1.41-0.44v-0.55c0-0.69,0.1-1.24,0.31-1.66
				s0.51-0.73,0.9-0.93c0.39-0.2,0.87-0.29,1.43-0.29c0.33,0,0.63,0.03,0.91,0.08c0.28,0.06,0.52,0.12,0.72,0.2l-0.36,1.08
				c-0.17-0.05-0.36-0.1-0.57-0.15c-0.21-0.05-0.43-0.07-0.65-0.07c-0.44,0-0.77,0.14-0.99,0.43c-0.21,0.29-0.32,0.72-0.32,1.31
				v0.58h2.02V236.69z"/>
			<path class="st0" d="M57.53,239.66c0,0.67-0.09,1.27-0.26,1.8c-0.18,0.53-0.43,0.97-0.76,1.33s-0.73,0.64-1.2,0.83
				c-0.47,0.19-1,0.29-1.59,0.29c-0.55,0-1.05-0.1-1.51-0.29c-0.46-0.19-0.86-0.47-1.19-0.83c-0.33-0.36-0.59-0.8-0.77-1.33
				c-0.18-0.53-0.27-1.12-0.27-1.8c0-0.89,0.15-1.66,0.46-2.28s0.74-1.11,1.31-1.43c0.57-0.33,1.24-0.49,2.03-0.49
				c0.75,0,1.4,0.17,1.96,0.5s1,0.81,1.31,1.44C57.37,238.01,57.53,238.77,57.53,239.66z M51.42,239.66c0,0.64,0.08,1.19,0.24,1.64
				c0.16,0.46,0.42,0.82,0.76,1.07s0.79,0.38,1.33,0.38c0.54,0,0.98-0.13,1.32-0.38c0.34-0.25,0.6-0.61,0.76-1.07
				c0.16-0.46,0.24-1.01,0.24-1.64c0-0.63-0.08-1.17-0.24-1.63c-0.16-0.45-0.42-0.8-0.76-1.05c-0.34-0.25-0.79-0.37-1.33-0.37
				c-0.81,0-1.39,0.27-1.77,0.8S51.42,238.7,51.42,239.66z"/>
			<path class="st0" d="M66.49,235.45c0.15,0,0.32,0.01,0.49,0.03c0.18,0.02,0.33,0.04,0.46,0.07l-0.16,1.3
				c-0.12-0.04-0.26-0.06-0.42-0.08s-0.31-0.03-0.44-0.03c-0.32,0-0.62,0.06-0.91,0.18c-0.29,0.12-0.54,0.3-0.76,0.53
				c-0.22,0.23-0.39,0.51-0.51,0.84s-0.19,0.7-0.19,1.12v4.33h-1.4v-8.15h1.13l0.16,1.48h0.06c0.17-0.3,0.37-0.57,0.61-0.82
				s0.52-0.44,0.83-0.59C65.76,235.52,66.11,235.45,66.49,235.45z"/>
			<path class="st0" d="M91.62,232.92l-2.88,10.83h-1.48l-2.04-7.03c-0.06-0.19-0.12-0.39-0.17-0.6c-0.06-0.21-0.11-0.42-0.16-0.62
				s-0.09-0.38-0.13-0.54c-0.03-0.16-0.06-0.28-0.07-0.37c-0.01,0.08-0.03,0.21-0.06,0.36c-0.03,0.16-0.07,0.34-0.11,0.54
				c-0.04,0.2-0.09,0.41-0.15,0.62c-0.06,0.21-0.11,0.42-0.17,0.62l-1.99,7.02h-1.48l-2.86-10.83h1.47l1.68,6.65
				c0.05,0.22,0.11,0.44,0.16,0.66c0.05,0.22,0.1,0.45,0.14,0.66s0.08,0.43,0.12,0.63s0.07,0.4,0.09,0.59
				c0.02-0.19,0.06-0.4,0.1-0.61s0.08-0.43,0.13-0.66c0.05-0.22,0.1-0.45,0.16-0.67s0.11-0.44,0.17-0.64l1.89-6.62h1.44l1.96,6.66
				c0.06,0.21,0.12,0.43,0.18,0.66c0.06,0.23,0.11,0.45,0.16,0.67s0.09,0.44,0.13,0.64c0.04,0.21,0.07,0.39,0.1,0.57
				c0.03-0.24,0.08-0.5,0.13-0.79c0.05-0.28,0.11-0.57,0.18-0.88c0.07-0.3,0.14-0.6,0.22-0.9l1.68-6.65H91.62z"/>
			<path class="st0" d="M103.21,239.66c0,0.67-0.09,1.27-0.26,1.8c-0.18,0.53-0.43,0.97-0.76,1.33s-0.73,0.64-1.2,0.83
				c-0.47,0.19-1,0.29-1.59,0.29c-0.55,0-1.05-0.1-1.51-0.29c-0.46-0.19-0.86-0.47-1.19-0.83c-0.33-0.36-0.59-0.8-0.77-1.33
				c-0.18-0.53-0.27-1.12-0.27-1.8c0-0.89,0.15-1.66,0.46-2.28s0.74-1.11,1.31-1.43c0.57-0.33,1.24-0.49,2.03-0.49
				c0.75,0,1.4,0.17,1.96,0.5s1,0.81,1.31,1.44C103.05,238.01,103.21,238.77,103.21,239.66z M97.1,239.66
				c0,0.64,0.08,1.19,0.24,1.64c0.16,0.46,0.42,0.82,0.76,1.07s0.79,0.38,1.33,0.38c0.54,0,0.98-0.13,1.32-0.38
				c0.34-0.25,0.6-0.61,0.76-1.07c0.16-0.46,0.24-1.01,0.24-1.64c0-0.63-0.08-1.17-0.24-1.63c-0.16-0.45-0.42-0.8-0.76-1.05
				c-0.34-0.25-0.79-0.37-1.33-0.37c-0.81,0-1.39,0.27-1.77,0.8S97.1,238.7,97.1,239.66z"/>
			<path class="st0" d="M115.42,239.66c0,0.67-0.09,1.27-0.26,1.8c-0.18,0.53-0.43,0.97-0.76,1.33s-0.73,0.64-1.2,0.83
				c-0.47,0.19-1,0.29-1.59,0.29c-0.55,0-1.05-0.1-1.51-0.29c-0.46-0.19-0.86-0.47-1.19-0.83c-0.33-0.36-0.59-0.8-0.77-1.33
				c-0.18-0.53-0.27-1.12-0.27-1.8c0-0.89,0.15-1.66,0.46-2.28s0.74-1.11,1.31-1.43c0.57-0.33,1.24-0.49,2.03-0.49
				c0.75,0,1.4,0.17,1.96,0.5s1,0.81,1.31,1.44C115.26,238.01,115.42,238.77,115.42,239.66z M109.31,239.66
				c0,0.64,0.08,1.19,0.24,1.64c0.16,0.46,0.42,0.82,0.76,1.07s0.79,0.38,1.33,0.38c0.54,0,0.98-0.13,1.32-0.38
				c0.34-0.25,0.6-0.61,0.76-1.07c0.16-0.46,0.24-1.01,0.24-1.64c0-0.63-0.08-1.17-0.24-1.63c-0.16-0.45-0.42-0.8-0.76-1.05
				c-0.34-0.25-0.79-0.37-1.33-0.37c-0.81,0-1.39,0.27-1.77,0.8S109.31,238.7,109.31,239.66z"/>
			<path class="st0" d="M125.35,234c-0.57,0-1.09,0.1-1.54,0.3c-0.45,0.2-0.84,0.49-1.16,0.86c-0.32,0.38-0.56,0.83-0.73,1.37
				s-0.25,1.13-0.25,1.8c0,0.88,0.13,1.65,0.4,2.3c0.27,0.65,0.67,1.15,1.21,1.5c0.54,0.35,1.21,0.53,2.03,0.53
				c0.47,0,0.93-0.04,1.36-0.13c0.43-0.08,0.86-0.19,1.28-0.33v1.23c-0.41,0.16-0.83,0.27-1.27,0.35c-0.44,0.07-0.96,0.11-1.55,0.11
				c-1.11,0-2.03-0.23-2.76-0.69s-1.28-1.1-1.65-1.94c-0.37-0.83-0.55-1.82-0.55-2.95c0-0.82,0.11-1.57,0.34-2.25
				c0.23-0.68,0.56-1.27,1-1.76c0.44-0.49,0.98-0.88,1.62-1.14c0.64-0.27,1.38-0.4,2.21-0.4c0.55,0,1.08,0.06,1.59,0.17
				c0.51,0.11,0.98,0.27,1.41,0.48l-0.54,1.19c-0.36-0.16-0.74-0.3-1.15-0.42C126.25,234.06,125.81,234,125.35,234z"/>
			<path class="st0" d="M140.23,239.66c0,0.67-0.09,1.27-0.26,1.8c-0.18,0.53-0.43,0.97-0.76,1.33c-0.33,0.36-0.73,0.64-1.2,0.83
				c-0.47,0.19-1,0.29-1.58,0.29c-0.55,0-1.05-0.1-1.51-0.29c-0.46-0.19-0.86-0.47-1.19-0.83c-0.33-0.36-0.59-0.8-0.77-1.33
				c-0.18-0.53-0.27-1.12-0.27-1.8c0-0.89,0.15-1.66,0.46-2.28s0.74-1.11,1.31-1.43s1.25-0.49,2.03-0.49c0.75,0,1.4,0.17,1.96,0.5
				c0.56,0.33,1,0.81,1.32,1.44C140.07,238.01,140.23,238.77,140.23,239.66z M134.13,239.66c0,0.64,0.08,1.19,0.24,1.64
				c0.16,0.46,0.42,0.82,0.76,1.07c0.34,0.25,0.79,0.38,1.33,0.38c0.54,0,0.98-0.13,1.32-0.38c0.34-0.25,0.6-0.61,0.76-1.07
				c0.16-0.46,0.24-1.01,0.24-1.64c0-0.63-0.08-1.17-0.24-1.63c-0.16-0.45-0.42-0.8-0.76-1.05c-0.34-0.25-0.79-0.37-1.33-0.37
				c-0.8,0-1.39,0.27-1.77,0.8S134.13,238.7,134.13,239.66z"/>
			<path class="st0" d="M154.32,235.45c0.9,0,1.58,0.24,2.04,0.7c0.46,0.47,0.69,1.22,0.69,2.26v5.33h-1.39v-5.19
				c0-0.65-0.14-1.13-0.41-1.46c-0.27-0.32-0.68-0.49-1.21-0.49c-0.75,0-1.3,0.22-1.64,0.67s-0.51,1.11-0.51,1.98v4.48h-1.38v-5.19
				c0-0.43-0.06-0.79-0.18-1.08c-0.12-0.29-0.3-0.5-0.54-0.65c-0.24-0.14-0.54-0.21-0.9-0.21c-0.52,0-0.93,0.11-1.25,0.33
				c-0.31,0.22-0.54,0.55-0.68,0.98c-0.14,0.43-0.21,0.96-0.21,1.6v4.23h-1.39v-8.15h1.11l0.2,1.13h0.08
				c0.16-0.28,0.37-0.52,0.62-0.71c0.25-0.19,0.52-0.33,0.83-0.43c0.31-0.1,0.63-0.14,0.97-0.14c0.62,0,1.13,0.11,1.55,0.34
				c0.42,0.22,0.72,0.57,0.92,1.03h0.08c0.27-0.46,0.63-0.8,1.09-1.03C153.28,235.56,153.78,235.45,154.32,235.45z"/>
			<path class="st0" d="M171.54,235.45c0.9,0,1.58,0.24,2.04,0.7c0.46,0.47,0.69,1.22,0.69,2.26v5.33h-1.39v-5.19
				c0-0.65-0.14-1.13-0.41-1.46c-0.27-0.32-0.68-0.49-1.21-0.49c-0.75,0-1.3,0.22-1.64,0.67s-0.51,1.11-0.51,1.98v4.48h-1.38v-5.19
				c0-0.43-0.06-0.79-0.18-1.08c-0.12-0.29-0.3-0.5-0.54-0.65c-0.24-0.14-0.54-0.21-0.9-0.21c-0.52,0-0.93,0.11-1.25,0.33
				c-0.31,0.22-0.54,0.55-0.68,0.98c-0.14,0.43-0.21,0.96-0.21,1.6v4.23h-1.39v-8.15h1.11l0.2,1.13h0.08
				c0.16-0.28,0.37-0.52,0.62-0.71c0.25-0.19,0.52-0.33,0.83-0.43c0.31-0.1,0.63-0.14,0.97-0.14c0.62,0,1.13,0.11,1.55,0.34
				c0.42,0.22,0.72,0.57,0.92,1.03h0.08c0.27-0.46,0.63-0.8,1.09-1.03C170.5,235.56,171,235.45,171.54,235.45z"/>
			<path class="st0" d="M182.97,235.45c0.7,0,1.3,0.15,1.81,0.46s0.89,0.73,1.16,1.29c0.27,0.55,0.4,1.2,0.4,1.95v0.82h-5.56
				c0.01,0.9,0.24,1.59,0.69,2.06s1.07,0.71,1.87,0.71c0.51,0,0.97-0.05,1.37-0.14c0.4-0.1,0.82-0.24,1.26-0.43v1.19
				c-0.41,0.18-0.82,0.32-1.23,0.4c-0.41,0.09-0.9,0.13-1.46,0.13c-0.79,0-1.48-0.16-2.07-0.47c-0.59-0.32-1.05-0.78-1.38-1.4
				c-0.33-0.62-0.49-1.38-0.49-2.29c0-0.89,0.15-1.65,0.45-2.29c0.3-0.64,0.72-1.13,1.27-1.47
				C181.6,235.62,182.24,235.45,182.97,235.45z M182.97,236.55c-0.62,0-1.12,0.2-1.5,0.61c-0.38,0.41-0.6,0.98-0.67,1.72h4.12
				c0-0.46-0.08-0.86-0.22-1.21c-0.14-0.35-0.35-0.62-0.64-0.82C183.78,236.65,183.41,236.55,182.97,236.55z"/>
			<path class="st0" d="M195.27,235.45c0.15,0,0.32,0.01,0.49,0.03c0.18,0.02,0.33,0.04,0.46,0.07l-0.16,1.3
				c-0.12-0.04-0.26-0.06-0.42-0.08s-0.31-0.03-0.44-0.03c-0.32,0-0.62,0.06-0.91,0.18c-0.29,0.12-0.54,0.3-0.76,0.53
				c-0.22,0.23-0.39,0.51-0.51,0.84c-0.12,0.33-0.18,0.7-0.18,1.12v4.33h-1.4v-8.15h1.13l0.16,1.48h0.06
				c0.17-0.3,0.37-0.57,0.61-0.82s0.52-0.44,0.83-0.59C194.54,235.52,194.89,235.45,195.27,235.45z"/>
			<path class="st0" d="M204.05,243.9c-0.75,0-1.4-0.15-1.96-0.45s-1-0.76-1.31-1.38c-0.31-0.62-0.47-1.4-0.47-2.35
				c0-0.99,0.17-1.8,0.5-2.42c0.33-0.63,0.79-1.09,1.37-1.39c0.59-0.3,1.25-0.45,2-0.45c0.43,0,0.84,0.04,1.22,0.13
				c0.39,0.09,0.7,0.19,0.96,0.32l-0.42,1.15c-0.27-0.11-0.56-0.2-0.88-0.28s-0.62-0.12-0.91-0.12c-0.53,0-0.98,0.12-1.33,0.35
				s-0.62,0.57-0.8,1.03c-0.17,0.45-0.26,1.01-0.26,1.68c0,0.64,0.09,1.19,0.26,1.63c0.17,0.45,0.43,0.79,0.77,1.02
				c0.34,0.23,0.77,0.35,1.29,0.35c0.43,0,0.83-0.05,1.17-0.14c0.35-0.1,0.67-0.21,0.96-0.35v1.23c-0.28,0.15-0.59,0.27-0.93,0.34
				C204.94,243.86,204.53,243.9,204.05,243.9z"/>
			<path class="st0" d="M214.34,235.45c0.7,0,1.3,0.15,1.81,0.46s0.89,0.73,1.16,1.29c0.27,0.55,0.4,1.2,0.4,1.95v0.82h-5.56
				c0.01,0.9,0.24,1.59,0.69,2.06s1.07,0.71,1.87,0.71c0.51,0,0.97-0.05,1.37-0.14c0.4-0.1,0.82-0.24,1.26-0.43v1.19
				c-0.41,0.18-0.82,0.32-1.23,0.4c-0.41,0.09-0.9,0.13-1.46,0.13c-0.79,0-1.48-0.16-2.07-0.47c-0.59-0.32-1.05-0.78-1.38-1.4
				c-0.33-0.62-0.49-1.38-0.49-2.29c0-0.89,0.15-1.65,0.45-2.29c0.3-0.64,0.72-1.13,1.27-1.47
				C212.97,235.62,213.61,235.45,214.34,235.45z M214.34,236.55c-0.62,0-1.12,0.2-1.5,0.61c-0.38,0.41-0.6,0.98-0.67,1.72h4.12
				c0-0.46-0.08-0.86-0.22-1.21c-0.14-0.35-0.35-0.62-0.64-0.82C215.15,236.65,214.78,236.55,214.34,236.55z"/>
		</g>
		<g>
			<g>
				<path class="st0" d="M98.71,197.59l-2.88,10.83h-1.48l-2.04-7.03c-0.06-0.19-0.12-0.39-0.17-0.6c-0.06-0.21-0.11-0.42-0.16-0.62
					s-0.09-0.38-0.13-0.54c-0.03-0.16-0.06-0.28-0.07-0.37c-0.01,0.08-0.03,0.21-0.06,0.36c-0.03,0.16-0.07,0.34-0.11,0.54
					c-0.04,0.2-0.09,0.41-0.15,0.62c-0.06,0.21-0.11,0.42-0.17,0.62l-1.99,7.02h-1.48l-2.86-10.83h1.47l1.68,6.65
					c0.05,0.22,0.11,0.44,0.16,0.66c0.05,0.22,0.1,0.45,0.14,0.66s0.08,0.43,0.12,0.63s0.07,0.4,0.09,0.59
					c0.02-0.19,0.06-0.4,0.1-0.61s0.08-0.43,0.13-0.66c0.05-0.22,0.1-0.45,0.16-0.67s0.11-0.44,0.17-0.64l1.89-6.62h1.44l1.96,6.66
					c0.06,0.21,0.12,0.43,0.18,0.66c0.06,0.23,0.11,0.45,0.16,0.67s0.09,0.44,0.13,0.64c0.04,0.21,0.07,0.39,0.1,0.57
					c0.03-0.24,0.08-0.5,0.13-0.79c0.05-0.28,0.11-0.57,0.18-0.88c0.07-0.3,0.14-0.6,0.22-0.9l1.68-6.65H98.71z"/>
				<path class="st0" d="M103.29,197.59c1.4,0,2.42,0.28,3.06,0.83s0.97,1.34,0.97,2.37c0,0.46-0.07,0.9-0.22,1.32
					s-0.39,0.78-0.73,1.1c-0.34,0.32-0.78,0.57-1.32,0.75s-1.21,0.27-2,0.27h-1.27v4.19h-1.43v-10.83H103.29z M103.17,198.8h-1.39
					v4.22h1.11c0.65,0,1.19-0.07,1.63-0.21c0.44-0.14,0.77-0.37,0.99-0.69c0.22-0.32,0.33-0.74,0.33-1.27c0-0.69-0.22-1.2-0.65-1.54
					C104.77,198.97,104.09,198.8,103.17,198.8z"/>
				<path class="st0" d="M116.32,208.43l-1.25-3.3h-4.28l-1.24,3.3h-1.47l4.17-10.88h1.41l4.15,10.88H116.32z M114.67,203.88
					l-1.19-3.27c-0.03-0.1-0.09-0.26-0.16-0.47s-0.14-0.43-0.21-0.66c-0.07-0.23-0.13-0.41-0.17-0.56c-0.05,0.2-0.1,0.41-0.17,0.63
					c-0.06,0.22-0.12,0.42-0.18,0.6c-0.06,0.19-0.1,0.34-0.14,0.46l-1.21,3.27H114.67z"/>
				<path class="st0" d="M123.05,200.13c1,0,1.8,0.35,2.4,1.05s0.9,1.75,0.9,3.15c0,0.93-0.14,1.71-0.41,2.34
					c-0.28,0.63-0.66,1.11-1.16,1.43c-0.5,0.32-1.08,0.48-1.76,0.48c-0.42,0-0.8-0.06-1.12-0.17c-0.32-0.11-0.59-0.26-0.82-0.45
					c-0.23-0.19-0.42-0.39-0.57-0.62h-0.1c0.02,0.2,0.04,0.43,0.06,0.69c0.02,0.26,0.03,0.49,0.03,0.69v3.33h-1.4v-11.78h1.15
					l0.19,1.19h0.07c0.16-0.25,0.35-0.47,0.57-0.67c0.22-0.2,0.5-0.36,0.82-0.48C122.23,200.19,122.61,200.13,123.05,200.13z
					 M122.75,201.29c-0.54,0-0.97,0.1-1.29,0.31c-0.32,0.21-0.56,0.52-0.71,0.94c-0.15,0.42-0.23,0.94-0.24,1.56v0.24
					c0,0.66,0.07,1.22,0.21,1.68s0.38,0.8,0.71,1.04s0.78,0.36,1.33,0.36c0.48,0,0.88-0.13,1.19-0.39c0.32-0.26,0.55-0.62,0.71-1.09
					c0.16-0.47,0.24-1.01,0.24-1.63c0-0.93-0.18-1.67-0.53-2.21C124.02,201.56,123.48,201.29,122.75,201.29z"/>
				<path class="st0" d="M132.38,200.13c1,0,1.8,0.35,2.4,1.05c0.6,0.7,0.9,1.75,0.9,3.15c0,0.93-0.14,1.71-0.42,2.34
					c-0.28,0.63-0.66,1.11-1.16,1.43c-0.5,0.32-1.08,0.48-1.76,0.48c-0.42,0-0.8-0.06-1.12-0.17s-0.59-0.26-0.82-0.45
					c-0.23-0.19-0.42-0.39-0.57-0.62h-0.1c0.02,0.2,0.04,0.43,0.06,0.69c0.02,0.26,0.03,0.49,0.03,0.69v3.33h-1.4v-11.78h1.15
					l0.18,1.19h0.07c0.16-0.25,0.35-0.47,0.57-0.67c0.22-0.2,0.5-0.36,0.82-0.48C131.56,200.19,131.94,200.13,132.38,200.13z
					 M132.09,201.29c-0.54,0-0.97,0.1-1.29,0.31c-0.32,0.21-0.56,0.52-0.71,0.94s-0.23,0.94-0.24,1.56v0.24
					c0,0.66,0.07,1.22,0.21,1.68c0.14,0.46,0.38,0.8,0.71,1.04s0.78,0.36,1.33,0.36c0.48,0,0.88-0.13,1.19-0.39
					c0.32-0.26,0.55-0.62,0.71-1.09c0.16-0.47,0.24-1.01,0.24-1.63c0-0.93-0.18-1.67-0.53-2.21
					C133.36,201.56,132.82,201.29,132.09,201.29z"/>
				<path class="st0" d="M143.11,206.17c0,0.52-0.13,0.97-0.39,1.33s-0.63,0.63-1.12,0.81c-0.49,0.18-1.08,0.27-1.76,0.27
					c-0.57,0-1.06-0.04-1.47-0.13s-0.79-0.21-1.11-0.37v-1.25c0.35,0.17,0.75,0.32,1.22,0.45c0.47,0.13,0.94,0.2,1.4,0.2
					c0.66,0,1.14-0.11,1.43-0.32c0.29-0.21,0.44-0.5,0.44-0.86c0-0.21-0.06-0.39-0.17-0.55c-0.12-0.16-0.32-0.32-0.61-0.48
					s-0.7-0.34-1.23-0.53c-0.52-0.2-0.96-0.4-1.33-0.6c-0.37-0.2-0.65-0.44-0.85-0.73s-0.3-0.65-0.3-1.11c0-0.7,0.28-1.23,0.84-1.6
					c0.56-0.37,1.3-0.56,2.23-0.56c0.49,0,0.95,0.05,1.38,0.15s0.85,0.23,1.24,0.41l-0.46,1.09c-0.35-0.15-0.71-0.27-1.08-0.37
					c-0.38-0.1-0.76-0.15-1.15-0.15c-0.53,0-0.94,0.08-1.22,0.26c-0.28,0.17-0.42,0.41-0.42,0.71c0,0.23,0.07,0.42,0.2,0.58
					c0.13,0.15,0.35,0.3,0.65,0.44c0.3,0.14,0.7,0.31,1.21,0.5c0.5,0.19,0.94,0.38,1.3,0.59c0.37,0.2,0.65,0.45,0.84,0.73
					C143.01,205.34,143.11,205.71,143.11,206.17z"/>
				<path class="st0" d="M153.91,202.91c0,1.22-0.23,2.24-0.67,3.06s-1.1,1.43-1.94,1.84c-0.85,0.41-1.88,0.62-3.09,0.62h-2.96
					v-10.83h3.29c1.11,0,2.06,0.2,2.86,0.6s1.42,1,1.86,1.79C153.69,200.77,153.91,201.75,153.91,202.91z M152.41,202.95
					c0-0.94-0.16-1.72-0.47-2.33s-0.76-1.07-1.36-1.37c-0.6-0.3-1.33-0.45-2.2-0.45h-1.72v8.41h1.44c1.43,0,2.51-0.36,3.22-1.07
					C152.05,205.43,152.41,204.36,152.41,202.95z"/>
				<path class="st0" d="M159.28,200.13c0.7,0,1.3,0.15,1.81,0.46s0.89,0.73,1.16,1.29c0.27,0.55,0.4,1.2,0.4,1.95v0.82h-5.56
					c0.01,0.9,0.24,1.59,0.69,2.06s1.07,0.71,1.87,0.71c0.51,0,0.97-0.05,1.37-0.14c0.4-0.1,0.82-0.24,1.26-0.43v1.19
					c-0.41,0.18-0.82,0.32-1.23,0.4c-0.41,0.09-0.9,0.13-1.46,0.13c-0.79,0-1.48-0.16-2.07-0.47c-0.59-0.32-1.05-0.78-1.38-1.4
					c-0.33-0.62-0.49-1.38-0.49-2.29c0-0.89,0.15-1.65,0.45-2.29c0.3-0.64,0.72-1.13,1.27-1.47
					C157.9,200.3,158.54,200.13,159.28,200.13z M159.27,201.23c-0.62,0-1.12,0.2-1.5,0.61c-0.38,0.41-0.6,0.98-0.67,1.72h4.12
					c0-0.46-0.08-0.86-0.22-1.21c-0.14-0.35-0.35-0.62-0.64-0.82C160.08,201.33,159.72,201.23,159.27,201.23z"/>
				<path class="st0" d="M166.52,208.43l-3.1-8.15h1.49l1.76,4.88c0.12,0.33,0.24,0.68,0.35,1.07c0.12,0.39,0.2,0.71,0.24,0.96h0.05
					c0.05-0.25,0.14-0.57,0.26-0.96c0.13-0.39,0.24-0.75,0.35-1.07l1.76-4.88h1.49l-3.1,8.15H166.52z"/>
			</g>
		</g>
		<g>
			<path class="st2" d="M205.25,109.43v36.89c0,2.04-1.66,3.7-3.7,3.7h-32.77c-2.04,0-3.7-1.66-3.7-3.7v-48.3
				c0-2.04,1.66-3.7,3.7-3.7h21.77L205.25,109.43z"/>
			
				<linearGradient id="SVGID_00000050640646351546845490000008732074401887312817_" gradientUnits="userSpaceOnUse" x1="195.5734" y1="104.9713" x2="203.5185" y2="115.5936">
				<stop  offset="0" style="stop-color:#005528"/>
				<stop  offset="0.0471" style="stop-color:#00592A;stop-opacity:0.9651"/>
				<stop  offset="0.5892" style="stop-color:#007C43;stop-opacity:0.5629"/>
				<stop  offset="0.8481" style="stop-color:#008A4D;stop-opacity:0.3708"/>
			</linearGradient>
			<polygon style="fill:url(#SVGID_00000050640646351546845490000008732074401887312817_);" points="192.09,108.83 205.17,122.14 
				205.35,109.53 199.78,104.07 			"/>
			<path class="st0" d="M175.12,121.35v18.55h20.29v-18.55H175.12z M183.92,137.37h-6.26v-3.17h6.26V137.37z M183.92,132.21h-6.26
				v-3.17h6.26V132.21z M183.92,127.06h-6.26v-3.17h6.26V127.06z M192.8,137.37h-6.26v-3.17h6.26V137.37z M192.8,132.21h-6.26v-3.17
				h6.26V132.21z M192.8,127.06h-6.26v-3.17h6.26V127.06z"/>
			<path class="st4" d="M190.55,94.32v11.51c0,2.04,1.65,3.69,3.69,3.69h11.1L190.55,94.32z"/>
		</g>
		<g>
			<path class="st5" d="M156.87,141.27l-14.05,14.06c-1.24-1.39-2.39-2.86-3.48-4.4c-2.11-3.01-5.58-4.82-9.26-4.82
				c-2.33,0-4.58,0.71-6.49,2.06c-5.11,3.58-6.34,10.63-2.76,15.74c1.83,2.62,3.83,5.1,5.98,7.42
				c-13.34,13.86-31.95,21.79-51.21,21.79c-39.19,0-71.07-31.89-71.07-71.08s31.88-71.07,71.07-71.07
				c19.42,0,37.89,7.97,51.19,21.74l-13.43,13.42c-9.76-10.26-23.39-16.19-37.76-16.19c-28.73,0-52.1,23.37-52.1,52.1
				c0,28.73,23.37,52.11,52.1,52.11c14.28,0,28.1-5.96,37.9-16.34l0.19-0.2l29.77-29.75c3.69-3.71,9.7-3.71,13.4,0
				C160.57,131.57,160.57,137.56,156.87,141.27z"/>
		</g>
		<path class="st2" d="M180.51,193.13c-23.14,0-44.9-11.31-58.19-30.26c-3.01-4.29-1.97-10.2,2.32-13.21
			c4.29-3.01,10.2-1.97,13.21,2.32c9.74,13.89,25.69,22.18,42.66,22.18c28.73,0,52.11-23.37,52.11-52.1
			c0-28.73-23.38-52.11-52.11-52.11c-14.28,0-28.09,5.96-37.89,16.34l-0.19,0.2l-29.76,29.76c-3.7,3.7-9.71,3.7-13.41,0
			c-3.7-3.7-3.7-9.71,0-13.41l29.67-29.67c13.36-14.1,32.16-22.18,51.59-22.18c39.19,0,71.07,31.88,71.07,71.07
			C251.59,161.24,219.7,193.13,180.51,193.13z"/>
		<g>
			<path class="st6" d="M86.75,106.52h-43.9c-2.78,0-5.03,2.27-5.01,5.03v16.76c0,2.78,2.25,5.03,5.03,5.03h20.79l9.5,5.29
				l-2.16-5.29h15.74c2.78,0,5.03-2.25,5.03-5.03v-16.76C91.78,108.77,89.53,106.52,86.75,106.52z M41.93,110.4
				c-0.62,0.04-1.08,0.26-1.39,0.68c-0.31,0.4-0.42,0.9-0.35,1.48c1.3,8.27,2.51,13.85,3.64,16.73c0.44,1.06,0.95,1.57,1.54,1.52
				c0.93-0.07,2.03-1.34,3.33-3.84c0.68-1.41,1.74-3.53,3.17-6.35c1.19,4.17,2.82,7.3,4.87,9.39c0.57,0.6,1.17,0.86,1.74,0.82
				c0.51-0.04,0.9-0.31,1.17-0.79c0.22-0.42,0.31-0.9,0.26-1.46c-0.13-2.01,0.07-4.81,0.62-8.4c0.57-3.7,1.28-6.37,2.14-7.96
				c0.18-0.33,0.24-0.66,0.22-1.06c-0.04-0.51-0.26-0.93-0.68-1.26c-0.42-0.33-0.88-0.49-1.39-0.44c-0.64,0.04-1.12,0.35-1.46,0.97
				c-1.37,2.49-2.34,6.53-2.91,12.13c-0.84-2.12-1.54-4.61-2.09-7.54c-0.24-1.3-0.84-1.92-1.81-1.85c-0.66,0.04-1.21,0.49-1.65,1.32
				l-4.83,9.19c-0.79-3.2-1.54-7.1-2.23-11.71C43.69,110.84,43.05,110.31,41.93,110.4z M84.42,111.98c1.57,0.33,2.73,1.17,3.53,2.56
				c0.71,1.19,1.06,2.62,1.06,4.34c0,2.27-0.57,4.34-1.72,6.24c-1.32,2.2-3.04,3.31-5.18,3.31c-0.37,0-0.77-0.04-1.19-0.13
				c-1.57-0.33-2.73-1.17-3.53-2.56c-0.71-1.21-1.06-2.67-1.06-4.37c0-2.27,0.57-4.34,1.72-6.22c1.34-2.2,3.06-3.31,5.18-3.31
				C83.6,111.85,84,111.9,84.42,111.98z M83.49,123.91c0.82-0.73,1.37-1.81,1.68-3.26c0.09-0.51,0.15-1.06,0.15-1.63
				c0-0.64-0.13-1.32-0.4-2.01c-0.33-0.86-0.77-1.32-1.3-1.43c-0.79-0.15-1.57,0.29-2.29,1.37c-0.6,0.84-0.97,1.72-1.17,2.62
				c-0.11,0.51-0.15,1.06-0.15,1.61c0,0.64,0.13,1.32,0.4,2.01c0.33,0.86,0.77,1.32,1.3,1.43
				C82.26,124.73,82.85,124.49,83.49,123.91z M74.12,114.54c-0.79-1.39-1.98-2.23-3.53-2.56c-0.42-0.09-0.82-0.13-1.19-0.13
				c-2.12,0-3.84,1.1-5.18,3.31c-1.15,1.87-1.72,3.95-1.72,6.22c0,1.7,0.35,3.15,1.06,4.37c0.79,1.39,1.96,2.23,3.53,2.56
				c0.42,0.09,0.82,0.13,1.19,0.13c2.14,0,3.86-1.1,5.18-3.31c1.15-1.9,1.72-3.97,1.72-6.24C75.18,117.17,74.83,115.73,74.12,114.54
				z M71.34,120.65c-0.31,1.46-0.86,2.54-1.68,3.26c-0.64,0.57-1.23,0.82-1.79,0.71c-0.53-0.11-0.97-0.57-1.3-1.43
				c-0.26-0.68-0.4-1.37-0.4-2.01c0-0.55,0.04-1.1,0.15-1.61c0.2-0.9,0.57-1.79,1.17-2.62c0.73-1.08,1.5-1.52,2.29-1.37
				c0.53,0.11,0.97,0.57,1.3,1.43c0.26,0.68,0.4,1.37,0.4,2.01C71.5,119.59,71.45,120.14,71.34,120.65z"/>
			
				<linearGradient id="SVGID_00000029009936115341073450000001762418175488010113_" gradientUnits="userSpaceOnUse" x1="37.3068" y1="144.1331" x2="91.9819" y2="144.1331">
				<stop  offset="0" style="stop-color:#4D186E"/>
				<stop  offset="1" style="stop-color:#7D57A4"/>
			</linearGradient>
			<path style="fill-rule:evenodd;clip-rule:evenodd;fill:url(#SVGID_00000029009936115341073450000001762418175488010113_);" d="
				M38.49,141.06c-0.79,0.78-1.18,1.77-1.18,2.98c0,1.29,0.39,2.34,1.17,3.13c0.78,0.79,1.8,1.19,3.06,1.19
				c0.37,0,0.78-0.06,1.23-0.19v-1.92c-0.41,0.12-0.77,0.18-1.08,0.18c-0.63,0-1.12-0.21-1.5-0.63c-0.38-0.43-0.57-0.99-0.57-1.72
				c0-0.67,0.19-1.23,0.56-1.66c0.38-0.44,0.84-0.65,1.41-0.65c0.37,0,0.76,0.06,1.18,0.18v-1.92c-0.39-0.11-0.83-0.15-1.29-0.15
				C40.28,139.89,39.28,140.28,38.49,141.06z M46.7,139.89c-1.09,0-1.94,0.37-2.56,1.09c-0.62,0.72-0.91,1.74-0.91,3.04
				c0,1.41,0.31,2.48,0.91,3.23c0.6,0.75,1.49,1.12,2.65,1.12c1.12,0,1.99-0.38,2.59-1.12c0.6-0.75,0.91-1.8,0.91-3.15
				c0-1.35-0.31-2.39-0.92-3.12C48.75,140.26,47.86,139.89,46.7,139.89z M47.63,146.04c-0.21,0.33-0.53,0.5-0.93,0.5
				c-0.38,0-0.66-0.17-0.86-0.5c-0.2-0.33-0.3-0.99-0.3-2c0-1.55,0.39-2.32,1.18-2.32c0.83,0,1.25,0.78,1.25,2.35
				C47.97,145.05,47.85,145.71,47.63,146.04z M56.14,140.12l-0.43,1.81c-0.11,0.46-0.21,0.93-0.31,1.42l-0.24,1.25
				c-0.22-1.25-0.53-2.74-0.92-4.48H51.5l-1.03,8.06h2.06l0.56-5.55l1.41,5.55h1.47l1.35-5.54l0.58,5.54h2.15l-1.09-8.06H56.14z
				 M65.99,140.12l-0.43,1.81c-0.11,0.46-0.21,0.93-0.31,1.42l-0.24,1.25c-0.22-1.25-0.53-2.74-0.92-4.48h-2.74l-1.03,8.06h2.06
				l0.56-5.55l1.41,5.55h1.47l1.34-5.54l0.58,5.54h2.15l-1.09-8.06H65.99z M72.69,144.99h1.93v-1.67h-1.93v-1.48h2.22v-1.72h-4.4
				v8.06h4.41v-1.72h-2.24V144.99z M81.05,143.71c0.22-0.37,0.34-0.75,0.34-1.14c0-0.76-0.3-1.36-0.89-1.8
				c-0.59-0.44-1.41-0.66-2.43-0.66h-2.53v8.06h2.18v-3.67h0.04l1.76,3.67h2.29l-1.74-3.63C80.5,144.35,80.83,144.08,81.05,143.71z
				 M77.72,143.58v-1.92c0.52,0.01,0.89,0.09,1.11,0.26c0.22,0.17,0.33,0.43,0.33,0.8C79.16,143.29,78.67,143.57,77.72,143.58z
				 M82.67,141.06c-0.79,0.78-1.18,1.77-1.18,2.98c0,1.29,0.39,2.34,1.17,3.13c0.78,0.79,1.8,1.19,3.06,1.19
				c0.37,0,0.78-0.06,1.23-0.19v-1.92c-0.41,0.12-0.77,0.18-1.08,0.18c-0.63,0-1.12-0.21-1.5-0.63c-0.38-0.43-0.57-0.99-0.57-1.72
				c0-0.67,0.19-1.23,0.56-1.66c0.38-0.44,0.84-0.65,1.41-0.65c0.37,0,0.76,0.06,1.18,0.18v-1.92c-0.39-0.11-0.83-0.15-1.29-0.15
				C84.47,139.89,83.46,140.28,82.67,141.06z M89.73,146.45v-1.47h1.93v-1.67h-1.93v-1.48h2.24v-1.72h-4.4v8.06h4.41v-1.72h-2.25
				V146.45z"/>
		</g>
	</g>
</g>
</svg>
